<svg xmlns="http://www.w3.org/2000/svg" xmlns:xlink="http://www.w3.org/1999/xlink" version="1.1" id="Layer_1" x="0px" y="0px" width="100px" height="100px" viewBox="0 0 100 100" enable-background="new 0 0 100 100" xml:space="preserve">
<g>
	<path fill="#436b93" d="M57.162,48.05c2.283-1.625,5.12-2.604,8.327-2.604c2.139,0,4.153,0.436,5.931,1.208   c0.183,0.077,0.355,0.121,0.519,0.133c-1.181-2.583-3.915-2.746-7.412-2.494c-5.692,0.412-7.797,1.203-8.576,2.087   c-0.356,0.402-0.48,1.019-0.501,1.684C55.904,48.402,56.541,48.49,57.162,48.05z"/>
	<path fill="#436b93" d="M82.72,46.179c-1.162-0.376-2.367-0.229-3.49,0.273c3.728-11.815,4.353-23.803,1.406-29.979   c-0.413-1.004-0.872-1.944-1.387-2.831l5.518-1.489c0.982-0.265,0.953-1.364-0.043-1.57l-5.115-1.059l4.649-0.405   c1.023-0.089,1.164-1.218,0.192-1.566c0,0-4.297-1.539-10.691-3.09C57.767,0.583,28.657-3.383,20.493,16.473   c-2.943,6.169-2.695,18.16,0.995,30.012c-1.144-0.529-2.376-0.692-3.568-0.306c-2.623,0.864-3.157,4.057-2.647,6.994   c0.253,1.47,0.777,3.011,1.542,4.469c1.042,1.99,1.995,3.565,2.929,4.734c1.674,2.1,3.395,3.004,5.483,2.538   c0.165,1.211,0.368,2.354,0.608,3.437c0.73,3.307,1.785,6.045,3.068,8.319c1.033,1.828,2.209,3.348,3.478,4.61   c0.331,1.689,0.781,3.583,1.361,5.699c0.483-0.425,0.919-0.878,1.313-1.354c-0.239-0.904-0.456-1.765-0.646-2.582l0.114,0.083   c0.52,0.388,1.05,0.74,1.585,1.061c0.295-0.453,0.566-0.918,0.822-1.387c-0.49-0.295-0.974-0.615-1.448-0.968   c-1.907-1.415-3.694-3.334-5.177-5.955c-1.196-2.119-2.198-4.705-2.896-7.866c-0.293-1.331-0.531-2.754-0.708-4.279   c-0.087-0.75-0.905-0.883-1.34-0.522c-0.034,0.004-0.069,0.016-0.105,0.025c-1.465,0.472-2.688,0.098-4.252-1.863   c-0.838-1.051-1.737-2.522-2.763-4.478c-0.691-1.317-1.157-2.7-1.38-3.988c-0.504-2.891,0.238-4.759,1.553-5.19   c0.859-0.28,1.846-0.125,2.883,0.494c0.711,0.426,1.422,1.057,2.078,1.875c0.097,0.137,0.233,0.229,0.384,0.277   c0.037,0.01,0.074,0.021,0.114,0.027c0.148,0.025,0.304,0.013,0.446-0.037c-0.077-0.778-0.208-1.656-0.798-2.091   c-0.627-0.552-1.105-1.162-1.105-1.997v-3.088c0-0.62,0.341-1.178,0.822-1.49c0.744-0.435,1.691-0.757,2.778-0.991   c0.008-1.774-0.252-4.11-1.006-7.44c-2.07-9.152,0.721-10.076,5.349-9.396c6.712,0.986,12.91,3.917,19.818,4.044h0.23   c6.906-0.127,13.106-3.058,19.819-4.044c4.627-0.679,7.419,0.244,5.348,9.396c-0.755,3.338-1.017,5.674-1.007,7.45   c1.064,0.233,1.999,0.555,2.729,0.98c0.483,0.312,0.823,0.871,0.823,1.49v3.092c0,0.835-0.478,1.444-1.104,1.997   c-0.411,0.305-0.656,1.137-0.817,2.064c0.138,0.062,0.293,0.087,0.444,0.072c0.218,0.005,0.443-0.085,0.625-0.312   c0.658-0.818,1.368-1.45,2.079-1.875c1.037-0.619,2.023-0.773,2.884-0.494c1.313,0.431,2.058,2.299,1.553,5.191   c-0.224,1.288-0.691,2.669-1.38,3.986c-1.027,1.957-1.926,3.429-2.763,4.478c-1.562,1.961-2.787,2.337-4.253,1.864   c-0.036-0.009-0.072-0.021-0.106-0.026c-0.434-0.358-1.251-0.228-1.34,0.522c-0.177,1.527-0.414,2.95-0.708,4.281   c-0.697,3.159-1.699,5.745-2.898,7.866c-1.479,2.619-3.269,4.54-5.176,5.953c-1.801,1.335-3.721,2.229-5.612,2.829   c-1.013,0.32-2.011,0.56-2.977,0.734c0.148-0.989-1.353-1.304-1.586-0.281c-0.303,1.323-1.258,2.6-4.662,2.73   c-3.401-0.131-4.357-1.409-4.659-2.73c-0.233-1.022-1.734-0.708-1.586,0.281c-0.859-0.154-1.745-0.362-2.644-0.632   c-0.193,0.501-0.396,1.003-0.604,1.502c1.368,0.422,2.712,0.698,3.981,0.887c0.916,1.319,2.616,2.193,5.478,2.305h0.083   c2.847-0.109,4.551-0.985,5.465-2.305c1.337-0.198,2.756-0.495,4.2-0.956c2.029-0.645,4.116-1.61,6.085-3.07l0.113-0.083   c-0.681,2.924-1.687,6.404-3.021,10.464c-2.162,3.263-9.994,3.747-12.894,3.747c-2.896-0.002-10.724-0.487-12.89-3.747   l-0.323-0.997c-0.404,0.443-0.839,0.864-1.308,1.254l0.083,0.258l0.035,0.089c0,0,0.049,0.104,0.169,0.289   c2.561,3.855,10.525,4.467,14.239,4.467c3.707,0,11.673-0.613,14.233-4.467c0.12-0.183,0.166-0.289,0.166-0.289l0.036-0.089   c1.699-5.174,2.837-9.364,3.501-12.741c1.269-1.263,2.443-2.782,3.478-4.61c1.283-2.274,2.337-5.015,3.068-8.319   c0.238-1.082,0.444-2.226,0.608-3.438c2.086,0.466,3.811-0.437,5.483-2.536c0.934-1.169,1.883-2.746,2.929-4.736   c0.764-1.458,1.288-2.997,1.542-4.467C85.879,50.236,85.345,47.043,82.72,46.179z"/>
	<path fill="#436b93" d="M63.807,47.699c-3.005,0-5.753,1.409-6.753,3.62c-0.466,1.03,1.078,1.729,1.545,0.698   c0.513-1.135,1.895-2.139,3.757-2.491c-0.641,0.427-1.063,1.156-1.063,1.984c0,1.313,1.065,2.378,2.381,2.378   c1.313,0,2.379-1.064,2.379-2.378c0-0.867-0.463-1.626-1.157-2.043c2.014,0.286,3.479,1.336,4.028,2.55   c0.464,1.03,2.009,0.332,1.542-0.698C69.47,49.118,66.822,47.7,63.807,47.699z"/>
	<path fill="#436b93" d="M42.53,79.443c1.091-3.438,2.9-5.11,4.635-5.896c0.236-0.095,0.247-0.272-0.25-0.417   c-0.375-0.112-0.768-0.114-1.132,0.02c-2.156,0.647-4.375,2.163-5.7,5.443c-2.483,6.145-5.042,9.153-8.144,10.767   c0.036-2.042-0.059-5.054-1.098-7.578c-0.269-0.822-2.384-1.273-4.883-1.011c-2.479,0.261-4.445,1.13-4.567,1.988   c-0.286,1.979-0.2,4.685,0.507,7.269c1.362,4.976,3.775,6.493,8.556,5.344C36.174,93.996,39.505,88.969,42.53,79.443z M29.2,82.338   c-0.708,0.33-1.765,0.615-2.998,0.745c-1.232,0.129-2.325,0.069-3.085-0.106c-0.261-0.06-0.276-0.416-0.057-0.519   c0.709-0.328,1.767-0.615,2.999-0.746c1.232-0.128,2.325-0.067,3.086,0.107C29.404,81.879,29.417,82.238,29.2,82.338z"/>
	<path fill="#436b93" d="M22.06,56.256c0.278,0.97,1.066,1.769,1.756,1.713c1.514-0.116,0.549-2.367,0.457-2.585   c-1.119-2.837-3.304-5.318-5.539-4.767c-1.045,0.257-0.658,1.824,0.386,1.567c0.72-0.181,2.057,0.667,3.098,2.577   C21.956,55.083,21.88,55.635,22.06,56.256z"/>
	<path fill="#436b93" d="M36.829,47.699c-3.018,0-5.663,1.419-6.66,3.62c-0.466,1.03,1.079,1.73,1.544,0.698   c0.548-1.214,2.014-2.264,4.025-2.55c-0.692,0.417-1.155,1.176-1.155,2.043c0,1.313,1.066,2.378,2.379,2.378   c1.315,0,2.38-1.064,2.38-2.378c0-0.828-0.423-1.557-1.063-1.984c1.862,0.352,3.245,1.357,3.757,2.491   c0.467,1.03,2.01,0.332,1.542-0.698C42.581,49.106,39.833,47.699,36.829,47.699z"/>
	<path fill="#436b93" d="M34.364,59.945c7.974,0.78,11.36-3.537,12.594-6.754c1.216-3.166,1.189-4.725,3.309-4.729   c2.118,0.004,2.092,1.563,3.307,4.729c1.232,3.217,4.62,7.534,12.595,6.754c8.47-0.828,8.718-6.461,9.034-9.033   c0.201-1.637,0.216-2.655,1.212-3.391c0.552-0.487,0.753-0.832,0.753-1.261v-3.087c0-0.287-0.148-0.539-0.371-0.685   c-1.065-0.622-4.747-1.512-10.346-1.306c-6.528,0.245-10.755,2.144-12.249,2.668c-1.439,0.505-3.755,0.5-3.935,0.499   c-0.182,0.002-2.498,0.007-3.937-0.499c-1.495-0.524-5.721-2.424-12.25-2.668c-5.597-0.206-9.279,0.684-10.344,1.306   c-0.225,0.146-0.371,0.398-0.371,0.685v3.087c0,0.431,0.2,0.774,0.752,1.261c0.997,0.737,1.011,1.754,1.211,3.391   C25.646,53.484,25.894,59.117,34.364,59.945z M64.461,43.348c4.836-0.35,9.117,0.102,9.064,7.258   c-0.039,5.599-3.96,8.347-8.811,8.347c-6.043,0-9.616-3.899-9.987-8.146C54.345,46.464,53.23,44.161,64.461,43.348z M36.072,43.348   c11.23,0.812,10.115,3.117,9.734,7.458c-0.37,4.251-3.944,8.146-9.989,8.146c-4.849,0-8.769-2.748-8.81-8.347   C26.955,43.449,31.236,42.998,36.072,43.348z"/>
	<path fill="#436b93" d="M81.52,52.185c1.043,0.257,1.43-1.311,0.385-1.567c-2.232-0.55-4.416,1.93-5.538,4.767   c-0.091,0.218-1.057,2.471,0.457,2.585c0.691,0.054,1.479-0.745,1.757-1.713c0.18-0.621,0.102-1.171-0.158-1.494   C79.462,52.852,80.798,52.004,81.52,52.185z"/>
	<path fill="#436b93" d="M56.061,72.817l-0.26,0.125c-1.269,0.583-3.024,1.032-5.614,1.032c-0.722,0-1.379-0.035-1.979-0.099   c-0.12,0.218-0.34,0.411-0.687,0.55c-0.551,0.253-1.041,0.598-1.485,1.021c1.235,0.472,2.611,0.79,4.149,0.794   c3.106-0.006,5.557-1.288,7.493-2.568c0.547-0.346,1.084-0.754,1.612-1.223c0.485-0.43,0.829-0.961,1.321-1.161   c0.173-0.071,0.315-0.146,0.426-0.222c0.468-0.218,0.872-0.459,1.229-0.732c0.824-0.631-0.124-1.869-0.949-1.238   c-1.505,1.149-4.545,1.834-11.139,1.834c-6.593,0-9.626-0.685-11.131-1.834c-0.826-0.631-1.772,0.607-0.946,1.238   c0.363,0.277,0.78,0.524,1.257,0.746c0.109,0.069,0.245,0.141,0.407,0.206c0.492,0.202,0.836,0.731,1.32,1.161   c0.522,0.465,1.05,0.866,1.588,1.209c0.453-0.343,0.952-0.647,1.505-0.436b93-0.133-0.071-0.26-0.143-0.381-0.216   c-0.231-0.137-0.453-0.285-0.663-0.441c1.848,0.271,4.158,0.398,7.045,0.398c2.897,0,5.214-0.127,7.065-0.4   c-0.211,0.156-0.432,0.307-0.666,0.443C56.415,72.631,56.245,72.725,56.061,72.817z"/>
	<path fill="#436b93" d="M56.984,64.309c1.129-0.028,1.086-1.722-0.044-1.694c-3.081,0.079-3.831,2.46-6.659,2.46   c-3.04,0-3.764-1.955-6.435-2.445c-1.111-0.204-1.416,1.464-0.307,1.667c1.02,0.185,1.693,0.63,2.389,1.091   c-0.048,0.29,0.068,0.607,0.431,0.777c1.184,0.548,2.452,0.71,3.958,0.72c1.335-0.01,2.604-0.172,3.789-0.72   c0.419-0.196,0.509-0.594,0.392-0.924l0.372-0.256C55.522,64.556,56.19,64.33,56.984,64.309z"/>
	<path fill="#436b93" d="M35.144,45.447c3.206,0,6.043,0.98,8.328,2.604c0.575,0.406,1.162,0.363,1.606,0.087l-0.004-0.195   c-0.015-0.713-0.159-1.18-0.494-1.561c-0.779-0.885-2.883-1.676-8.577-2.087c-3.502-0.252-6.235-0.089-7.415,2.5   c0.196-0.002,0.404-0.046,0.624-0.14C30.99,45.883,33.004,45.447,35.144,45.447z"/>
	<path fill="#436b93" d="M36.24,69.62c0.095-0.864,1.125-2.075,2.069-1.811c0.814,0.229,1.158-0.997,0.343-1.225   c-1.746-0.488-3.498,1.265-3.677,2.898C34.884,70.326,36.148,70.463,36.24,69.62z"/>
	<path fill="#436b93" d="M64.132,69.622c0.091,0.843,1.355,0.704,1.264-0.139c-0.178-1.634-1.931-3.387-3.676-2.896   c-0.815,0.226-0.474,1.452,0.344,1.223C63.007,67.545,64.039,68.754,64.132,69.622z"/>
</g>
</svg>