<svg xmlns="http://www.w3.org/2000/svg" xmlns:xlink="http://www.w3.org/1999/xlink" version="1.1" id="Layer_1" x="0px" y="0px" viewBox="0 0 96 96" enable-background="new 0 0 96 96" xml:space="preserve" height="100px" width="100px">
<g>
	<path fill="#e67e22" d="M28.4,35.2C24.7,39.5,22,45.6,22,53.3v16.2h17.7c2.9,0,5.2-2.3,5.2-5.2V46.4H31.9c0.7-2.7,1.9-4.9,3.4-6.7   c1.6-1.9,3.5-3.4,6.2-4.4c2-0.7,3.3-2.6,3.3-4.7v-3.9C36.6,27.9,32.1,30.8,28.4,35.2z"/>
	<path fill="#e67e22" d="M70.7,35.2c2-0.7,3.3-2.6,3.3-4.7v-3.9c-8.3,1.4-12.8,4.2-16.5,8.6c-3.7,4.4-6.4,10.4-6.4,18.1v16.2h17.7   c2.9,0,5.2-2.3,5.2-5.2V46.4H61.1c0.7-2.7,1.9-4.9,3.4-6.7C66.1,37.7,68,36.2,70.7,35.2z"/>
</g>
</svg>